<svg width="44" height="44" viewBox="0 0 44 44" fill="none" xmlns="http://www.w3.org/2000/svg">
  <path d="M4 0C1.79 0 0 1.79 0 4V40C0 42.21 1.79 44 4 44H40C42.21 44 44 42.21 44 40V4C44 1.79 42.21 0 40 0H4ZM31.3203 10.4961C32.5643 10.4961 33.4141 11.2891 33.4141 12.3711C33.4141 13.4531 32.5643 14.2461 31.3203 14.2461C30.0903 14.2461 29.2305 13.4531 29.2305 12.3711C29.2305 11.2891 30.0903 10.4961 31.3203 10.4961ZM15.5859 11.9062H19.5508L26.5625 31.6367H22.7773L21.1094 26.5938H13.8516L12.1523 31.6367H8.58594L15.5859 11.9062ZM17.375 15.6641L14.6719 23.8008H20.2891L17.6094 15.6641H17.375ZM29.6406 16.6797H33.0156V31.6367H29.6406V16.6797Z" fill="#0094FF" />
</svg>
