<svg width="36" height="56" viewBox="0 0 36 56" fill="none" xmlns="http://www.w3.org/2000/svg">
  <path
    d="M8 56C3.582 56 0 52.418 0 48C0 43.582 3.582 40 8 40H13.714C14.976 40 16 41.024 16 42.286V48C16 52.418 12.418 56 8 56ZM28 16H22.286C21.024 16 20 14.976 20 13.714V2.286C20 1.024 21.024 0 22.286 0H28C32.418 0 36 3.582 36 8C36 12.418 32.418 16 28 16ZM8 0H13.714C14.976 0 16 1.024 16 2.286V13.714C16 14.976 14.976 16 13.714 16H8C3.582 16 0 12.418 0 8C0 3.582 3.582 0 8 0ZM8 20H13.714C14.976 20 16 21.024 16 22.286V33.714C16 34.976 14.976 36 13.714 36H8C3.582 36 0 32.418 0 28C0 23.582 3.582 20 8 20ZM28 20C25.8783 20 23.8434 20.8429 22.3431 22.3431C20.8429 23.8434 20 25.8783 20 28C20 30.1217 20.8429 32.1566 22.3431 33.6569C23.8434 35.1571 25.8783 36 28 36C30.1217 36 32.1566 35.1571 33.6569 33.6569C35.1571 32.1566 36 30.1217 36 28C36 25.8783 35.1571 23.8434 33.6569 22.3431C32.1566 20.8429 30.1217 20 28 20Z"
    fill="#0094FF" />
</svg>
