<svg width="44" height="44" viewBox="0 0 44 44" fill="none" xmlns="http://www.w3.org/2000/svg">
  <path d="M4 0C1.79 0 0 1.79 0 4V40C0 42.21 1.79 44 4 44H40C42.21 44 44 42.21 44 40V4C44 1.79 42.21 0 40 0H4ZM8 11.9844H15.957C19.895 11.9844 22.5898 14.6783 22.5898 18.6562C22.5898 22.5662 19.7967 25.2461 15.8047 25.2461H11.5273V31.7148H8V11.9844ZM11.5273 14.9375V22.3203H15.0156C17.5316 22.3203 19.0078 21.0082 19.0078 18.6562C19.0078 16.2383 17.5693 14.9375 15.0273 14.9375H11.5273ZM30.4141 16.4531C33.9681 16.4531 36.1993 18.0261 36.4453 20.7461H33.2617C33.0157 19.6941 32.0157 19.0234 30.4297 19.0234C28.8857 19.0234 27.7227 19.7638 27.7227 20.8438C27.7227 21.6917 28.4335 22.2108 29.9375 22.5508L32.5742 23.1523C35.4322 23.7943 36.7578 25.0266 36.7578 27.2266C36.7578 30.1006 34.1187 32.0156 30.3867 32.0156C26.6547 32.0156 24.303 30.3997 24.043 27.6797H27.3945C27.7225 28.7877 28.7728 29.4453 30.4688 29.4453C32.1768 29.4453 33.3672 28.6939 33.3672 27.5859C33.3672 26.7379 32.7267 26.2027 31.3047 25.8867L28.6523 25.2734C25.7803 24.6174 24.4297 23.2912 24.4297 21.0352C24.4297 18.3272 26.8861 16.4531 30.4141 16.4531Z" fill="#0094FF" />
</svg>
